<svg width="24" height="24" viewBox="0 0 24 24" fill="none" xmlns="http://www.w3.org/2000/svg">
<g clip-path="url(#clip0_1247_10638)">
<path d="M20.6166 4.96H17.5336C16.1107 4.96 14.6877 4.36 13.7391 3.4C12.3162 1.84 10.419 1 8.28459 1H5.083C3.42293 1 2 2.44 2 4.12V5.08V14.68V23.8C2 24.52 2.47431 25 3.18577 25C3.89723 25 4.37154 24.52 4.37154 23.8V14.8V5.2V4.12C4.37154 3.76 4.72727 3.4 5.083 3.4H8.28459C9.70751 3.4 11.1304 4 12.0791 4.96C13.502 6.4 15.5178 7.24 17.5336 7.24H20.6166C21.0909 7.24 21.3281 7.6 21.3281 7.96V16.6C21.3281 17.08 20.9723 17.32 20.6166 17.32H17.5336C16.1107 17.32 14.6877 16.72 13.7391 15.76C12.3162 14.32 10.3004 13.48 8.28459 13.48H7.09882C6.38735 13.48 5.91304 13.96 5.91304 14.68C5.91304 15.4 6.38735 15.88 7.09882 15.88H8.40316C9.82609 15.88 11.249 16.48 12.1976 17.44C13.6206 18.88 15.6364 19.72 17.6522 19.72H20.7352C22.5138 19.72 23.8182 18.28 23.8182 16.6V8.08C23.8182 6.4 22.3953 4.96 20.6166 4.96Z" fill="white"/>
</g>
<defs>
<clipPath id="clip0_1247_10638">
<rect width="24" height="24" fill="white"/>
</clipPath>
</defs>
</svg>
