<svg width="18" height="19" viewBox="0 0 18 19" fill="none" xmlns="http://www.w3.org/2000/svg">
<path d="M11.9448 18.0123C12.1559 18.2234 12.4431 18.3421 12.7428 18.3421H14.5403C15.3797 18.3443 16.1856 18.0147 16.78 17.4262C17.3744 16.8377 17.7084 16.0385 17.7084 15.2051V7.22008C17.7084 6.54688 17.4078 5.90831 16.8876 5.4764M11.9448 18.0123L12.2983 17.6587C12.4153 17.7757 12.5752 17.8421 12.7428 17.8421H14.5403H14.5415C15.2494 17.8439 15.9281 17.566 16.4282 17.0709C16.9281 16.5759 17.2084 15.9045 17.2084 15.2051V7.22008C17.2084 6.69809 16.9761 6.20181 16.5723 5.86447M11.9448 18.0123L12.2983 17.6587C12.1815 17.5419 12.1171 17.3844 12.1183 17.2214V17.2177V14.4148C12.1183 13.9374 11.9273 13.4803 11.5884 13.1438C11.2496 12.8075 10.7909 12.6192 10.3133 12.6192H7.67865C6.68521 12.6192 5.87363 13.4197 5.87363 14.4148V16.8565L5.85163 16.8638L5.84902 17.2222C5.84654 17.5619 5.5674 17.8421 5.21635 17.8421H3.45991C1.98288 17.8421 0.791748 16.6544 0.791748 15.197V7.22632C0.805879 6.69619 1.05891 6.19907 1.48309 5.87266L1.48315 5.87274L1.49063 5.86675L7.46581 1.08387L7.47273 1.07833L7.47944 1.07255C8.329 0.341667 9.5849 0.31896 10.4608 1.01893L10.4623 1.02013L16.5723 5.86447M11.9448 18.0123L16.8876 5.4764M16.5723 5.86447L16.577 5.8682L16.8876 5.4764M16.5723 5.86447C16.571 5.86334 16.5696 5.86221 16.5682 5.86108L16.8876 5.4764" stroke="white"/>
</svg>
