<svg width="24" height="24" viewBox="0 0 24 24" fill="none" xmlns="http://www.w3.org/2000/svg">
<path d="M10.5992 0.614887C11.0399 0.219002 11.6113 0 12.2036 0C12.796 0 13.3674 0.219002 13.808 0.614887L22.6103 8.52409C22.8605 8.74915 23.0607 9.02432 23.1977 9.33174C23.3347 9.63916 23.4056 9.97196 23.4057 10.3085V21.5994C23.4057 22.2361 23.1527 22.8467 22.7025 23.2969C22.2523 23.7471 21.6417 24 21.0051 24H17.004C16.3674 24 15.7568 23.7471 15.3066 23.2969C14.8564 22.8467 14.6034 22.2361 14.6034 21.5994V15.998C14.6034 15.7857 14.5191 15.5822 14.3691 15.4321C14.219 15.2821 14.0155 15.1978 13.8032 15.1978H10.6024C10.3902 15.1978 10.1867 15.2821 10.0366 15.4321C9.88653 15.5822 9.80222 15.7857 9.80222 15.998V21.5994C9.80222 22.2361 9.5493 22.8467 9.0991 23.2969C8.6489 23.7471 8.0383 24 7.40162 24H3.40061C2.76393 24 2.15332 23.7471 1.70312 23.2969C1.25292 22.8467 1 22.2361 1 21.5994V10.3085C1 9.62837 1.28807 8.9802 1.797 8.52409L10.5992 0.614887ZM12.7374 1.80559C12.5905 1.67377 12.4002 1.60087 12.2028 1.60087C12.0055 1.60087 11.8151 1.67377 11.6683 1.80559L2.86607 9.71479C2.78269 9.78964 2.71595 9.88117 2.67019 9.98345C2.62442 10.0857 2.60065 10.1965 2.6004 10.3085V21.5994C2.6004 21.8116 2.68471 22.0152 2.83478 22.1652C2.98485 22.3153 3.18838 22.3996 3.40061 22.3996H7.40162C7.61384 22.3996 7.81738 22.3153 7.96745 22.1652C8.11751 22.0152 8.20182 21.8116 8.20182 21.5994V15.998C8.20182 15.3613 8.45474 14.7507 8.90494 14.3005C9.35514 13.8503 9.96575 13.5974 10.6024 13.5974H13.8032C14.4399 13.5974 15.0505 13.8503 15.5007 14.3005C15.9509 14.7507 16.2038 15.3613 16.2038 15.998V21.5994C16.2038 21.8116 16.2881 22.0152 16.4382 22.1652C16.5883 22.3153 16.7918 22.3996 17.004 22.3996H21.0051C21.2173 22.3996 21.4208 22.3153 21.5709 22.1652C21.721 22.0152 21.8053 21.8116 21.8053 21.5994V10.3085C21.805 10.1965 21.7812 10.0857 21.7355 9.98345C21.6897 9.88117 21.623 9.78964 21.5396 9.71479L12.7374 1.80559Z" fill="white"/>
</svg>
