<svg width="16" height="17" viewBox="0 0 16 17" fill="none" xmlns="http://www.w3.org/2000/svg">
<path fill-rule="evenodd" clip-rule="evenodd" d="M15.84 13.5786C15.84 16.1879 11.32 16.4895 7.921 16.4895L7.67776 16.4894C5.5122 16.4852 0 16.377 0 13.5627C0 11.0066 4.33835 10.665 7.71148 10.6522L8.16423 10.6519C10.3296 10.6561 15.84 10.7643 15.84 13.5786ZM7.921 11.8393C3.66 11.8393 1.5 12.4188 1.5 13.5627C1.5 14.717 3.66 15.302 7.921 15.302C12.181 15.302 14.34 14.7225 14.34 13.5786C14.34 12.4243 12.181 11.8393 7.921 11.8393ZM7.921 0.758789C10.849 0.758789 13.23 2.64454 13.23 4.96254C13.23 7.28054 10.849 9.1655 7.921 9.1655H7.889C4.967 9.15837 2.6 7.27183 2.60997 4.96016C2.60997 2.64454 4.992 0.758789 7.921 0.758789ZM7.921 1.88929C5.78 1.88929 4.03798 3.26758 4.03798 4.96254C4.031 6.65196 5.76 8.02946 7.892 8.03579L7.921 8.60104V8.03579C10.061 8.03579 11.802 6.65671 11.802 4.96254C11.802 3.26758 10.061 1.88929 7.921 1.88929Z" fill="white"/>
</svg>
