<svg width="24" height="24" viewBox="0 0 24 24" fill="none" xmlns="http://www.w3.org/2000/svg">
<path d="M12 12.6129C10.8516 12.6129 9.72897 12.2724 8.77411 11.6343C7.81924 10.9963 7.07501 10.0895 6.63554 9.02849C6.19606 7.9675 6.08107 6.80001 6.30512 5.67367C6.52916 4.54733 7.08217 3.51272 7.89422 2.70067C8.70627 1.88863 9.74088 1.33562 10.8672 1.11157C11.9936 0.887529 13.161 1.00252 14.222 1.44199C15.283 1.88147 16.1899 2.6257 16.8279 3.58056C17.4659 4.53543 17.8065 5.65805 17.8065 6.80645C17.8065 8.34642 17.1947 9.82331 16.1058 10.9122C15.0169 12.0012 13.54 12.6129 12 12.6129ZM12 3.32258C11.311 3.32258 10.6374 3.52691 10.0645 3.90972C9.49154 4.29253 9.04501 4.83664 8.78132 5.47323C8.51764 6.10983 8.44864 6.81032 8.58307 7.48612C8.7175 8.16193 9.0493 8.78269 9.53653 9.26992C10.0238 9.75715 10.6445 10.089 11.3203 10.2234C11.9961 10.3578 12.6966 10.2888 13.3332 10.0251C13.9698 9.76145 14.5139 9.31491 14.8967 8.74199C15.2795 8.16907 15.4839 7.4955 15.4839 6.80645C15.4839 5.88247 15.1168 4.99634 14.4635 4.34299C13.8101 3.68963 12.924 3.32258 12 3.32258ZM22.8387 23.4516C22.532 23.4476 22.2389 23.324 22.022 23.107C21.8051 22.8901 21.6814 22.5971 21.6774 22.2903C21.6774 19.271 20.0361 17.2581 12 17.2581C3.96387 17.2581 2.32258 19.271 2.32258 22.2903C2.32258 22.5983 2.20023 22.8937 1.98245 23.1115C1.76466 23.3293 1.46928 23.4516 1.16129 23.4516C0.853297 23.4516 0.557918 23.3293 0.340134 23.1115C0.12235 22.8937 0 22.5983 0 22.2903C0 14.9355 8.40774 14.9355 12 14.9355C15.5923 14.9355 24 14.9355 24 22.2903C23.996 22.5971 23.8724 22.8901 23.6554 23.107C23.4385 23.324 23.1455 23.4476 22.8387 23.4516Z" fill="white"/>
</svg>
