<svg width="1354" height="304" viewBox="0 0 1354 304" fill="none" xmlns="http://www.w3.org/2000/svg">
<path d="M55.6641 263.818C44.9219 263.818 35.9375 262.158 28.7109 258.838C21.582 255.42 15.918 250.488 11.7188 244.043C7.61719 237.5 4.6875 229.59 2.92969 220.312C1.17188 210.938 0.292969 200.293 0.292969 188.379V165.381H37.5V191.309C37.5 205.176 38.6719 215.137 41.0156 221.191C43.3594 227.246 47.998 230.273 54.9316 230.273C59.6191 230.273 63.1348 229.199 65.4785 227.051C67.9199 224.805 69.5312 221.289 70.3125 216.504C71.1914 211.621 71.6309 205.273 71.6309 197.461C71.6309 187.793 69.5801 178.955 65.4785 170.947C61.4746 162.939 55.3711 154.639 47.168 146.045L28.125 126.416C22.8516 120.947 18.0664 115.137 13.7695 108.984C9.57031 102.832 6.20117 95.9961 3.66211 88.4766C1.2207 80.8594 0 72.3633 0 62.9883C0 49.4141 1.66016 37.9395 4.98047 28.5645C8.30078 19.1895 13.916 12.1094 21.8262 7.32422C29.7363 2.44141 40.5762 0 54.3457 0C64.6973 0 73.1934 1.61133 79.834 4.83398C86.5723 7.95898 91.7969 12.5977 95.5078 18.75C99.3164 24.8047 102.002 32.2266 103.564 41.0156C105.127 49.707 105.908 59.668 105.908 70.8984V86.8652H69.7266V68.4082C69.7266 60.5957 69.2871 54.1016 68.4082 48.9258C67.627 43.75 66.1133 39.8926 63.8672 37.3535C61.6211 34.7168 58.3496 33.3984 54.0527 33.3984C49.9512 33.3984 46.6309 34.3262 44.0918 36.1816C41.5527 37.9395 39.6973 40.7227 38.5254 44.5312C37.4512 48.2422 36.9141 53.0762 36.9141 59.0332C36.9141 64.4043 37.5977 69.043 38.9648 72.9492C40.332 76.8555 42.4316 80.6152 45.2637 84.2285C48.0957 87.8418 51.6113 91.8945 55.8105 96.3867L77.0508 119.385C87.207 130.322 95.1172 141.699 100.781 153.516C106.445 165.332 109.277 178.516 109.277 193.066C109.277 208.496 107.617 221.484 104.297 232.031C100.977 242.48 95.4102 250.391 87.5977 255.762C79.7852 261.133 69.1406 263.818 55.6641 263.818Z" fill="url(#paint0_linear_453_20359)"/>
<path d="M191.541 263.818C178.162 263.818 167.273 261.328 158.875 256.348C150.477 251.27 144.324 243.652 140.418 233.496C136.512 223.242 134.559 210.303 134.559 194.678V3.07617H173.816V193.945C173.816 201.172 174.109 207.52 174.695 212.988C175.379 218.457 176.941 222.705 179.383 225.732C181.824 228.76 185.828 230.273 191.395 230.273C196.961 230.273 200.965 228.809 203.406 225.879C205.945 222.852 207.508 218.604 208.094 213.135C208.68 207.666 208.973 201.27 208.973 193.945V3.07617H248.23V194.678C248.23 210.303 246.277 223.242 242.371 233.496C238.562 243.652 232.459 251.27 224.061 256.348C215.76 261.328 204.92 263.818 191.541 263.818Z" fill="url(#paint1_linear_453_20359)"/>
<path d="M284.498 260.889V3.07617H343.678C353.932 3.07617 362.428 4.63867 369.166 7.76367C376.002 10.8887 381.373 15.5273 385.279 21.6797C389.186 27.832 391.969 35.4492 393.629 44.5312C395.289 53.5156 396.119 63.916 396.119 75.7324V81.1523C396.119 97.7539 394.654 111.914 391.725 123.633C388.893 135.254 383.766 144.092 376.344 150.146C368.922 156.201 358.473 159.229 344.996 159.229H323.756V260.889H284.498ZM323.756 126.855H337.232C342.994 126.855 347.291 125.391 350.123 122.461C352.955 119.531 354.811 114.697 355.689 107.959C356.666 101.123 357.154 92.041 357.154 80.7129V75.7324C357.057 61.7676 355.836 51.2207 353.492 44.0918C351.148 36.8652 345.826 33.252 337.525 33.252H323.756V126.855Z" fill="url(#paint2_linear_453_20359)"/>
<path d="M422.279 260.889V3.07617H508.705V36.9141H461.537V111.914H506.361V145.02H461.537V227.051H510.463V260.889H422.279Z" fill="url(#paint3_linear_453_20359)"/>
<path d="M538.967 260.889V3.07617H603.859C617.336 3.07617 627.395 5.71289 634.035 10.9863C640.676 16.2598 645.021 23.9746 647.072 34.1309C649.221 44.2871 650.295 56.6895 650.295 71.3379C650.295 86.4746 648.732 98.3887 645.607 107.08C642.58 115.674 636.33 121.436 626.857 124.365C631.35 125.146 635.109 127.002 638.137 129.932C641.164 132.764 643.605 136.963 645.461 142.529C647.316 147.998 648.635 155.078 649.416 163.77C650.295 172.363 650.734 182.91 650.734 195.41C650.734 196.387 650.734 199.121 650.734 203.613C650.734 208.105 650.734 213.428 650.734 219.58C650.832 225.635 650.93 231.689 651.027 237.744C651.125 243.799 651.271 248.975 651.467 253.271C651.662 257.568 651.906 260.107 652.199 260.889H612.941C612.648 260.4 612.404 257.91 612.209 253.418C612.111 248.828 611.965 243.018 611.77 235.986C611.672 228.955 611.574 221.387 611.477 213.281C611.477 205.176 611.477 197.217 611.477 189.404C611.477 181.494 611.477 174.512 611.477 168.457C611.477 160.742 610.891 154.932 609.719 151.025C608.645 147.021 606.594 144.238 603.566 142.676C600.637 141.113 596.389 140.186 590.822 139.893L578.225 139.16V260.889H538.967ZM578.371 108.691H594.045C598.83 108.691 602.443 107.617 604.885 105.469C607.424 103.32 609.133 99.3652 610.012 93.6035C610.988 87.8418 611.477 79.541 611.477 68.7012V67.0898C611.477 58.0078 611.037 51.0254 610.158 46.1426C609.279 41.2598 607.424 37.8906 604.592 36.0352C601.857 34.1797 597.561 33.252 591.701 33.252H578.371V108.691Z" fill="url(#paint4_linear_453_20359)"/>
<path d="M730.801 263.818C720.059 263.818 711.074 262.158 703.848 258.838C696.719 255.42 691.055 250.488 686.855 244.043C682.754 237.5 679.824 229.59 678.066 220.312C676.309 210.938 675.43 200.293 675.43 188.379V165.381H712.637V191.309C712.637 205.176 713.809 215.137 716.152 221.191C718.496 227.246 723.135 230.273 730.068 230.273C734.756 230.273 738.271 229.199 740.615 227.051C743.057 224.805 744.668 221.289 745.449 216.504C746.328 211.621 746.768 205.273 746.768 197.461C746.768 187.793 744.717 178.955 740.615 170.947C736.611 162.939 730.508 154.639 722.305 146.045L703.262 126.416C697.988 120.947 693.203 115.137 688.906 108.984C684.707 102.832 681.338 95.9961 678.799 88.4766C676.357 80.8594 675.137 72.3633 675.137 62.9883C675.137 49.4141 676.797 37.9395 680.117 28.5645C683.438 19.1895 689.053 12.1094 696.963 7.32422C704.873 2.44141 715.713 0 729.482 0C739.834 0 748.33 1.61133 754.971 4.83398C761.709 7.95898 766.934 12.5977 770.645 18.75C774.453 24.8047 777.139 32.2266 778.701 41.0156C780.264 49.707 781.045 59.668 781.045 70.8984V86.8652H744.863V68.4082C744.863 60.5957 744.424 54.1016 743.545 48.9258C742.764 43.75 741.25 39.8926 739.004 37.3535C736.758 34.7168 733.486 33.3984 729.189 33.3984C725.088 33.3984 721.768 34.3262 719.229 36.1816C716.689 37.9395 714.834 40.7227 713.662 44.5312C712.588 48.2422 712.051 53.0762 712.051 59.0332C712.051 64.4043 712.734 69.043 714.102 72.9492C715.469 76.8555 717.568 80.6152 720.4 84.2285C723.232 87.8418 726.748 91.8945 730.947 96.3867L752.188 119.385C762.344 130.322 770.254 141.699 775.918 153.516C781.582 165.332 784.414 178.516 784.414 193.066C784.414 208.496 782.754 221.484 779.434 232.031C776.113 242.48 770.547 250.391 762.734 255.762C754.922 261.133 744.277 263.818 730.801 263.818Z" fill="url(#paint5_linear_453_20359)"/>
<path d="M897.146 303.662L858.475 261.621L883.377 248.145L916.482 286.816L897.146 303.662ZM865.799 263.818C852.42 263.818 841.482 260.986 832.986 255.322C824.588 249.658 818.387 241.26 814.383 230.127C810.379 218.994 808.377 205.225 808.377 188.818V70.8984C808.377 56.0547 810.33 43.3594 814.236 32.8125C818.143 22.2656 824.344 14.1602 832.84 8.49609C841.336 2.83203 852.469 0 866.238 0C876.59 0 885.33 1.61133 892.459 4.83398C899.588 8.05664 905.35 12.7441 909.744 18.8965C914.139 24.9512 917.312 32.373 919.266 41.1621C921.316 49.8535 922.342 59.7656 922.342 70.8984V188.818C922.342 205.225 920.389 218.994 916.482 230.127C912.674 241.26 906.619 249.658 898.318 255.322C890.018 260.986 879.178 263.818 865.799 263.818ZM865.799 229.834C870.682 229.834 874.344 228.369 876.785 225.439C879.227 222.51 880.838 218.066 881.619 212.109C882.498 206.055 882.938 198.438 882.938 189.258V69.1406C882.938 57.9102 881.863 49.2676 879.715 43.2129C877.664 37.0605 873.172 33.9844 866.238 33.9844C859.109 33.9844 854.275 36.9629 851.736 42.9199C849.197 48.7793 847.928 57.4707 847.928 68.9941V189.258C847.928 198.633 848.318 206.348 849.1 212.402C849.979 218.359 851.688 222.754 854.227 225.586C856.863 228.418 860.721 229.834 865.799 229.834Z" fill="url(#paint6_linear_453_20359)"/>
<path d="M1012.66 263.818C999.283 263.818 988.395 261.328 979.996 256.348C971.598 251.27 965.445 243.652 961.539 233.496C957.633 223.242 955.68 210.303 955.68 194.678V3.07617H994.938V193.945C994.938 201.172 995.23 207.52 995.816 212.988C996.5 218.457 998.062 222.705 1000.5 225.732C1002.95 228.76 1006.95 230.273 1012.52 230.273C1018.08 230.273 1022.09 228.809 1024.53 225.879C1027.07 222.852 1028.63 218.604 1029.21 213.135C1029.8 207.666 1030.09 201.27 1030.09 193.945V3.07617H1069.35V194.678C1069.35 210.303 1067.4 223.242 1063.49 233.496C1059.68 243.652 1053.58 251.27 1045.18 256.348C1036.88 261.328 1026.04 263.818 1012.66 263.818Z" fill="url(#paint7_linear_453_20359)"/>
<path d="M1090.38 260.889L1127.15 3.07617H1179.01L1218.12 260.889H1181.5L1175.35 214.893H1133.74L1128.18 260.889H1090.38ZM1137.55 183.398H1171.24L1153.96 53.9062H1153.37L1137.55 183.398Z" fill="url(#paint8_linear_453_20359)"/>
<path d="M1241.06 260.889V3.07617H1298.92C1312 3.07617 1322.5 5.71289 1330.41 10.9863C1338.32 16.1621 1344.04 23.6816 1347.55 33.5449C1351.16 43.4082 1352.97 55.3223 1352.97 69.2871L1353.12 185.596C1353.12 202.49 1351.26 216.553 1347.55 227.783C1343.94 238.916 1338.08 247.217 1329.97 252.686C1321.87 258.154 1311.08 260.889 1297.6 260.889H1241.06ZM1280.31 230.42H1293.21C1297.79 230.42 1301.6 229.492 1304.63 227.637C1307.76 225.781 1310.05 222.51 1311.52 217.822C1313.08 213.037 1313.86 206.299 1313.86 197.607L1313.71 70.3125C1313.71 57.1289 1312.1 47.6562 1308.88 41.8945C1305.66 36.1328 1299.99 33.252 1291.89 33.252H1280.31V230.42Z" fill="url(#paint9_linear_453_20359)"/>
<defs>
<linearGradient id="paint0_linear_453_20359" x1="170.806" y1="573.888" x2="1118.22" y2="-239.28" gradientUnits="userSpaceOnUse">
<stop stop-color="white"/>
<stop offset="1" stop-color="#FEC168"/>
</linearGradient>
<linearGradient id="paint1_linear_453_20359" x1="170.806" y1="573.888" x2="1118.22" y2="-239.28" gradientUnits="userSpaceOnUse">
<stop stop-color="white"/>
<stop offset="1" stop-color="#FEC168"/>
</linearGradient>
<linearGradient id="paint2_linear_453_20359" x1="170.806" y1="573.888" x2="1118.22" y2="-239.28" gradientUnits="userSpaceOnUse">
<stop stop-color="white"/>
<stop offset="1" stop-color="#FEC168"/>
</linearGradient>
<linearGradient id="paint3_linear_453_20359" x1="170.806" y1="573.888" x2="1118.22" y2="-239.28" gradientUnits="userSpaceOnUse">
<stop stop-color="white"/>
<stop offset="1" stop-color="#FEC168"/>
</linearGradient>
<linearGradient id="paint4_linear_453_20359" x1="170.806" y1="573.888" x2="1118.22" y2="-239.28" gradientUnits="userSpaceOnUse">
<stop stop-color="white"/>
<stop offset="1" stop-color="#FEC168"/>
</linearGradient>
<linearGradient id="paint5_linear_453_20359" x1="170.806" y1="573.888" x2="1118.22" y2="-239.28" gradientUnits="userSpaceOnUse">
<stop stop-color="white"/>
<stop offset="1" stop-color="#FEC168"/>
</linearGradient>
<linearGradient id="paint6_linear_453_20359" x1="170.806" y1="573.888" x2="1118.22" y2="-239.28" gradientUnits="userSpaceOnUse">
<stop stop-color="white"/>
<stop offset="1" stop-color="#FEC168"/>
</linearGradient>
<linearGradient id="paint7_linear_453_20359" x1="170.806" y1="573.888" x2="1118.22" y2="-239.28" gradientUnits="userSpaceOnUse">
<stop stop-color="white"/>
<stop offset="1" stop-color="#FEC168"/>
</linearGradient>
<linearGradient id="paint8_linear_453_20359" x1="170.806" y1="573.888" x2="1118.22" y2="-239.28" gradientUnits="userSpaceOnUse">
<stop stop-color="white"/>
<stop offset="1" stop-color="#FEC168"/>
</linearGradient>
<linearGradient id="paint9_linear_453_20359" x1="170.806" y1="573.888" x2="1118.22" y2="-239.28" gradientUnits="userSpaceOnUse">
<stop stop-color="white"/>
<stop offset="1" stop-color="#FEC168"/>
</linearGradient>
</defs>
</svg>
