<svg width="25" height="24" viewBox="0 0 25 24" fill="none" xmlns="http://www.w3.org/2000/svg">
<path d="M18.5029 9C18.5029 7.4087 17.8708 5.88258 16.7456 4.75736C15.6204 3.63214 14.0942 3 12.5029 3C10.9116 3 9.38551 3.63214 8.26029 4.75736C7.13507 5.88258 6.50293 7.4087 6.50293 9C6.50293 16 4.50293 17 4.50293 17H20.5029C20.5029 17 18.5029 16 18.5029 9Z" stroke="black" stroke-width="1.5" stroke-linecap="round" stroke-linejoin="round"/>
<path d="M14.2329 20C14.0571 20.3031 13.8048 20.5547 13.5012 20.7295C13.1976 20.9044 12.8533 20.9965 12.5029 20.9965C12.1526 20.9965 11.8083 20.9044 11.5047 20.7295C11.2011 20.5547 10.9488 20.3031 10.7729 20" stroke="black" stroke-width="1.5" stroke-linecap="round" stroke-linejoin="round"/>
</svg>
